Coordinates
version=1
nRows=15
nColumns=46
inDegrees=yes

Units are S.I. units (second, meters, Newtons, ...)
Angles are in degrees.

endheader
time	pelvis_tilt	pelvis_list	pelvis_rotation	pelvis_tx	pelvis_ty	pelvis_tz	bb_angle	bb_tx	bb_ty	bb_tz	hip_flexion_r	hip_adduction_r	hip_rotation_r	knee_angle_r	knee_angle_r_beta	ankle_angle_r	subtalar_angle_r	mtp_angle_r	crank_angle_r	hip_flexion_l	hip_adduction_l	hip_rotation_l	knee_angle_l	knee_angle_l_beta	ankle_angle_l	subtalar_angle_l	mtp_angle_l	crank_angle_l	lumbar_extension	lumbar_bending	lumbar_rotation	arm_flex_r	arm_add_r	arm_rot_r	elbow_flex_r	pro_sup_r	wrist_flex_r	wrist_dev_r	arm_flex_l	arm_add_l	arm_rot_l	elbow_flex_l	pro_sup_l	wrist_flex_l	wrist_dev_l
      5.00500000	    -36.93239449	      2.95118863	     14.41954796	      0.41869820	      1.18351197	     -0.25546130	      0.00000000	      0.50000000	      0.00000000	      0.25000000	     39.16392598	    -14.57729748	    -13.00835618	     35.13798569	      0.61327354	    -24.29671385	     -3.30740590	      0.00000000	      0.00000000	     87.25843695	      5.92875569	      1.99585196	     90.86935614	      1.58596945	      5.35397497	     -0.52745404	      0.00000000	      0.00000000	    -57.74788875	      9.58785879	    -28.85484748	     48.39329525	     -2.35951424	     32.50259443	     87.28608942	     48.68382802	      0.00000000	      0.00000000	      6.82815681	    -48.46683359	    -12.59314839	    118.34081847	     53.52991791	      0.00000000	      0.00000000
      5.01000000	    -37.07410347	      2.63953986	     13.81892838	      0.41864774	      1.18427948	     -0.25578666	      0.00000000	      0.50000000	      0.00000000	      0.25000000	     40.46091413	    -14.10080583	    -12.32889330	     37.75410277	      0.65893340	    -24.36449374	     -5.37541423	      0.00000000	      0.00000000	     86.06883811	      5.71183389	      2.37408900	     88.58786169	      1.54614986	      7.29033050	     -0.96116746	      0.00000000	      0.00000000	    -57.80002544	      9.40920628	    -28.45993394	     48.96183258	     -2.73400319	     33.13401312	     87.26129008	     48.75992273	      0.00000000	      0.00000000	      6.95524422	    -47.28696611	    -13.24589612	    118.56284430	     53.48771610	      0.00000000	      0.00000000
      5.01500000	    -36.97973642	      2.25904642	     13.32585952	      0.41887661	      1.18511688	     -0.25664791	      0.00000000	      0.50000000	      0.00000000	      0.25000000	     41.43104583	    -13.63249842	    -11.82840487	     40.41886836	      0.70544233	    -23.93365273	     -6.78334401	      0.00000000	      0.00000000	     84.56192265	      5.68663963	      2.93499312	     86.18719605	      1.50425034	      9.10601301	     -1.75159492	      0.00000000	      0.00000000	    -58.08127141	      9.47508841	    -27.99480966	     49.43407683	     -2.83569349	     33.22281081	     87.21930869	     48.76091190	      0.00000000	      0.00000000	      6.98485563	    -46.71361070	    -13.42578545	    118.67619352	     53.48650946	      0.00000000	      0.00000000
      5.02000000	    -36.95595376	      2.03307123	     12.68565837	      0.41914350	      1.18576487	     -0.25723253	      0.00000000	      0.50000000	      0.00000000	      0.25000000	     42.56209371	    -13.19192575	    -11.07231509	     43.15613516	      0.75321665	    -23.48212248	     -8.20511224	      0.00000000	      0.00000000	     82.99446759	      5.52978106	      3.30556648	     83.54145670	      1.45807348	     10.44031617	     -2.58614819	      0.00000000	      0.00000000	    -58.29103313	      9.29022666	    -27.61449006	     49.93526552	     -3.01662356	     33.44670358	     87.20410926	     48.78063298	      0.00000000	      0.00000000	      7.15834183	    -45.82601496	    -13.69673209	    118.82388506	     53.47843561	      0.00000000	      0.00000000
      5.02500000	    -37.00659323	      2.03995299	     11.94819061	      0.41949867	      1.18641872	     -0.25761232	      0.00000000	      0.50000000	      0.00000000	      0.25000000	     43.81728045	    -12.87002463	    -10.02651126	     45.84791992	      0.80019716	    -23.29584907	     -9.34715313	      0.00000000	      0.00000000	     81.37791284	      5.31243566	      3.37531908	     80.70670930	      1.40859781	     11.14352445	     -3.76134889	      0.00000000	      0.00000000	    -58.42626022	      8.92538808	    -27.30329044	     50.29688494	     -3.44334539	     34.17945216	     87.12700456	     48.85101833	      0.00000000	      0.00000000	      7.68471683	    -44.27419572	    -14.21245508	    118.97650424	     53.43686804	      0.00000000	      0.00000000
      5.03000000	    -36.78936092	      1.80283933	     11.31344139	      0.42000504	      1.18687339	     -0.25843330	      0.00000000	      0.50000000	      0.00000000	      0.25000000	     44.73338711	    -12.45617278	     -9.45028845	     48.48509228	      0.84622450	    -22.86987290	    -10.16087208	      0.00000000	      0.00000000	     79.60164895	      5.11805287	      3.73310996	     77.96704355	      1.36078162	     11.70149427	     -4.83392420	      0.00000000	      0.00000000	    -58.74728148	      8.86633507	    -26.80086821	     50.73617469	     -3.78700742	     34.70825386	     86.98631208	     48.88628684	      0.00000000	      0.00000000	      7.96884423	    -43.19068900	    -14.44149494	    118.96858375	     53.40705397	      0.00000000	      0.00000000
      5.03500000	    -36.57814059	      1.24268732	     10.58177395	      0.42080957	      1.18698382	     -0.25940410	      0.00000000	      0.50000000	      0.00000000	      0.25000000	     45.61120872	    -11.75584688	     -9.13193109	     50.96722975	      0.88954597	    -22.48237259	    -10.79600558	      0.00000000	      0.00000000	     77.94079140	      4.68889689	      4.38923811	     75.38709069	      1.31575295	     12.18308326	     -5.70578066	      0.00000000	      0.00000000	    -59.02969136	      9.01089181	    -26.03408205	     51.13985534	     -3.94241965	     34.99558178	     86.92632622	     48.90556295	      0.00000000	      0.00000000	      7.96765181	    -42.37282204	    -14.54889079	    118.91664934	     53.38936939	      0.00000000	      0.00000000
      5.04000000	    -36.36436159	      0.95516692	      9.73051040	      0.42160316	      1.18713281	     -0.26021078	      0.00000000	      0.50000000	      0.00000000	      0.25000000	     46.51680758	    -11.11481261	     -8.34846528	     53.36645316	      0.93142032	    -22.04991847	    -11.14341345	      0.00000000	      0.00000000	     76.22545731	      4.19305602	      4.74022005	     72.76833131	      1.27004697	     12.14759177	     -6.74810235	      0.00000000	      0.00000000	    -59.33409994	      8.83269365	    -25.35143776	     51.60770617	     -4.50348590	     35.38105291	     86.91668209	     48.94702920	      0.00000000	      0.00000000	      8.23807051	    -41.03744900	    -14.82818724	    118.91749261	     53.35722352	      0.00000000	      0.00000000
      5.04500000	    -36.15201541	      0.61737702	      8.91740981	      0.42234999	      1.18699604	     -0.26097348	      0.00000000	      0.50000000	      0.00000000	      0.25000000	     47.42560186	    -10.45705110	     -7.58094944	     55.74304092	      0.97289960	    -21.60807694	    -11.10075466	      0.00000000	      0.00000000	     74.65809457	      3.60842054	      5.11324191	     70.36817718	      1.22815638	     11.91709608	     -7.30755050	      0.00000000	      0.00000000	    -59.65180966	      8.75854381	    -24.58558618	     51.99834152	     -4.95219816	     35.81648498	     87.01834764	     49.01197311	      0.00000000	      0.00000000	      8.50924960	    -39.86259014	    -15.01911886	    118.92046019	     53.33613044	      0.00000000	      0.00000000
      5.05000000	    -35.85324253	      0.34257593	      8.15128480	      0.42306052	      1.18681945	     -0.26170428	      0.00000000	      0.50000000	      0.00000000	      0.25000000	     48.23904001	     -9.86630520	     -6.79843154	     58.14718157	      1.01485977	    -20.89214049	    -10.87670071	      0.00000000	      0.00000000	     73.09909983	      2.97497175	      5.31619865	     68.09280604	      1.18844366	     11.38622935	     -7.65520502	      0.00000000	      0.00000000	    -59.99468570	      8.59400818	    -23.83819723	     52.30140371	     -5.55555520	     36.30372837	     87.17516741	     49.09395239	      0.00000000	      0.00000000	      8.92064941	    -38.66857928	    -15.14508863	    118.95180466	     53.32634411	      0.00000000	      0.00000000
      5.05500000	    -35.44087658	      0.06972473	      7.37870675	      0.42376257	      1.18664782	     -0.26187806	      0.00000000	      0.50000000	      0.00000000	      0.25000000	     48.94587501	     -9.26048690	     -6.12805092	     60.59310941	      1.05754926	    -19.87962683	    -10.53504633	      0.00000000	      0.00000000	     71.47740005	      2.25439230	      5.53435100	     65.90280477	      1.15022093	     10.66605650	     -7.67307907	      0.00000000	      0.00000000	    -60.45653470	      8.34911321	    -23.00735207	     52.65243372	     -6.20280783	     36.71619801	     87.45452137	     49.18909888	      0.00000000	      0.00000000	      9.41029509	    -37.67167857	    -15.12421239	    118.94877051	     53.32784882	      0.00000000	      0.00000000
      5.06000000	    -35.11541956	     -0.14799678	      6.47758041	      0.42438009	      1.18605958	     -0.26224562	      0.00000000	      0.50000000	      0.00000000	      0.25000000	     49.81702190	     -8.68199751	     -5.41268742	     63.13721592	      1.10195230	    -18.67516929	    -10.01082384	      0.00000000	      0.00000000	     69.97808521	      1.45608290	      5.64659547	     63.83031817	      1.11404921	      9.85297275	     -7.85534590	      0.00000000	      0.00000000	    -60.79652990	      7.95521745	    -22.11654887	     52.93557635	     -6.97407900	     37.10250322	     87.83574145	     49.30041586	      0.00000000	      0.00000000	      9.87732629	    -36.69707183	    -14.93767005	    118.93184238	     53.34966114	      0.00000000	      0.00000000
      5.06500000	    -34.87827712	     -0.58749849	      5.73519175	      0.42487734	      1.18530881	     -0.26279632	      0.00000000	      0.50000000	      0.00000000	      0.25000000	     50.71736856	     -7.96354052	     -4.83609527	     65.60755244	      1.14506780	    -17.40204685	     -9.70604354	      0.00000000	      0.00000000	     68.65258203	      0.68047059	      5.94869145	     61.80697475	      1.07873521	      8.87789731	     -7.65659821	      0.00000000	      0.00000000	    -61.04343043	      7.78136387	    -20.07131260	     52.55156927	     -8.69261878	     36.62299722	     89.34705439	     49.54070730	      0.00000000	      0.00000000	     12.19238975	    -35.71658769	    -12.35280695	    117.85393215	     53.48474934	      0.00000000	      0.00000000
      5.07000000	    -34.48269043	     -1.08240444	      4.94872023	      0.42546935	      1.18452178	     -0.26291819	      0.00000000	      0.50000000	      0.00000000	      0.25000000	     51.44776552	     -7.12624460	     -4.39609458	     68.06308625	      1.18792495	    -16.14918991	     -9.58950436	      0.00000000	      0.00000000	     67.20548473	     -0.27400418	      6.17686874	     59.87962760	      1.04509666	      7.83759244	     -7.32640442	      0.00000000	      0.00000000	    -61.43451377	      7.65597807	    -19.23418015	     52.83359726	     -8.88398095	     36.74321304	     89.33405907	     49.54991480	      0.00000000	      0.00000000	     11.97984967	    -35.32022647	    -12.48575590	    117.90490887	     53.48301473	      0.00000000	      0.00000000
      5.07500000	    -34.08926069	     -1.39481366	      4.08594549	      0.42598683	      1.18363003	     -0.26309452	      0.00000000	      0.50000000	      0.00000000	      0.25000000	     52.27149928	     -6.44919847	     -3.82840341	     70.59016416	      1.23203078	    -14.71150167	     -8.87319455	      0.00000000	      0.00000000	     65.68602685	     -1.17200411	      6.25280715	     57.93229553	      1.01110930	      6.68345812	     -6.99701794	      0.00000000	      0.00000000	    -61.81817928	      7.35401437	    -18.48807824	     53.09885425	     -9.24396179	     37.08234199	     89.44957063	     49.60445589	      0.00000000	      0.00000000	     11.84949152	    -34.83116032	    -12.64152263	    117.99196169	     53.48391501	      0.00000000	      0.00000000
